HIERARCHY
ROOT SpineBase
{
  OFFSET 0.000000 0.000000 0.000000
  CHANNELS 6 Xposition Yposition Zposition Zrotation Xrotation Yrotation
  JOINT SpineMid
  {
    OFFSET -0.000000 29.665185 0.000000
    CHANNELS 3 Zrotation Xrotation Yrotation
    JOINT SpineShoulder
    {
      OFFSET -0.245884 21.974653 -0.558810
      CHANNELS 3 Zrotation Xrotation Yrotation
      JOINT Neck
      {
        OFFSET -0.109072 7.284083 -0.509037
        CHANNELS 3 Zrotation Xrotation Yrotation
        JOINT Head
        {
          OFFSET -2.824911 11.868395 2.279785
          CHANNELS 3 Zrotation Xrotation Yrotation
          End Site
          {
            OFFSET 0 0 0
          }
        }
      }
      JOINT ShoulderLeft
      {
        OFFSET -9.758554 -3.437903 11.540656
        CHANNELS 3 Zrotation Xrotation Yrotation
        JOINT ElbowLeft
        {
          OFFSET -2.230398 -31.324566 0.353073
          CHANNELS 3 Zrotation Xrotation Yrotation
          JOINT WristLeft
          {
            OFFSET 2.336282 -22.622264 2.703862
            CHANNELS 3 Zrotation Xrotation Yrotation
            JOINT HandLeft
            {
              OFFSET -0.223376 -3.317282 -0.503999
              CHANNELS 3 Zrotation Xrotation Yrotation
              JOINT HandTipLeft
              {
                OFFSET 0.729058 -6.056584 -4.324248
                CHANNELS 3 Zrotation Xrotation Yrotation
                End Site
                {
                  OFFSET 0 0 0
                }
              }
              JOINT ThumbLeft
              {
                OFFSET 0.909170 -0.911746 -5.070144
                CHANNELS 3 Zrotation Xrotation Yrotation
                End Site
                {
                  OFFSET 0 0 0
                }
              }
            }
          }
        }
      }
      JOINT ShoulderRight
      {
        OFFSET 4.804148 -3.878181 -13.261433
        CHANNELS 3 Zrotation Xrotation Yrotation
        JOINT ElbowRight
        {
          OFFSET 4.981207 -25.563522 -4.868509
          CHANNELS 3 Zrotation Xrotation Yrotation
          JOINT WristRight
          {
            OFFSET -5.243053 -22.326181 -3.576498
            CHANNELS 3 Zrotation Xrotation Yrotation
            JOINT HandRight
            {
              OFFSET -0.136730 -2.611606 0.985463
              CHANNELS 3 Zrotation Xrotation Yrotation
              JOINT HandTipRight
              {
                OFFSET -1.266200 -7.496705 1.262994
                CHANNELS 3 Zrotation Xrotation Yrotation
                End Site
                {
                  OFFSET 0 0 0
                }
              }
              JOINT ThumbRight
              {
                OFFSET -3.468081 -0.444155 1.352524
                CHANNELS 3 Zrotation Xrotation Yrotation
                End Site
                {
                  OFFSET 0 0 0
                }
              }
            }
          }
        }
      }
    }
  }
  JOINT HipLeft
  {
    OFFSET -4.491168 0.831379 1.828634
    CHANNELS 3 Zrotation Xrotation Yrotation
    JOINT KneeLeft
    {
      OFFSET 8.891175 -28.732197 7.740235
      CHANNELS 3 Zrotation Xrotation Yrotation
      JOINT AnkleLeft
      {
        OFFSET 8.899409 -27.985008 3.189142
        CHANNELS 3 Zrotation Xrotation Yrotation
        JOINT FootLeft
        {
          OFFSET -2.606321 -6.216070 -1.018721
          CHANNELS 3 Zrotation Xrotation Yrotation
          End Site
          {
            OFFSET 0 0 0
          }
        }
      }
    }
  }
  JOINT HipRight
  {
    OFFSET 3.643885 0.797718 -8.530442
    CHANNELS 3 Zrotation Xrotation Yrotation
    JOINT KneeRight
    {
      OFFSET 9.954355 -27.364901 2.935918
      CHANNELS 3 Zrotation Xrotation Yrotation
      JOINT AnkleRight
      {
        OFFSET 8.055359 -30.422303 5.195844
        CHANNELS 3 Zrotation Xrotation Yrotation
        JOINT FootRight
        {
          OFFSET -7.250361 -3.194163 -7.273861
          CHANNELS 3 Zrotation Xrotation Yrotation
          End Site
          {
            OFFSET 0 0 0
          }
        }
      }
    }
  }
}
MOTION
Frames: 5
Frame Time: 0.033333
45.203977 52.468683 341.459438 25.994921 -15.518259 48.232470 -1.732178 0.211143 -43.765069 -1.089430 -0.821980 1.244789 -22.381056 30.716942 4.794462 0.000000 0.000000 0.000000 -22.961300 20.124080 2.198275 29.553954 6.786694 3.366852 -51.085875 -16.640109 -6.564791 24.556978 -26.632239 -19.500669 0.000000 0.000000 0.000000 0.000000 0.000000 0.000000 -159.970190 13.030330 132.536009 5.207877 -54.554813 -51.554250 -4.220024 25.705183 -20.236389 -2.985317 -11.336826 -1.297460 0.000000 0.000000 0.000000 0.000000 0.000000 0.000000 -179.927787 23.188791 98.268639 117.697936 -25.010988 43.176885 62.518875 24.697219 -31.234303 0.000000 0.000000 0.000000 -167.304764 7.542944 174.990134 -167.146770 -26.824003 132.460565 -4.030850 0.610082 -10.870647 0.000000 0.000000 0.000000
47.270631 53.102016 340.973430 26.430880 -15.827417 48.909016 -1.279639 -0.086018 -44.379891 -1.318652 -0.213770 1.196681 -16.276801 36.100387 1.803159 0.000000 0.000000 0.000000 -23.670442 19.758077 2.180203 28.274200 5.081387 3.512318 -46.375976 -16.677500 -5.317387 21.643673 -25.745093 -18.883848 0.000000 0.000000 0.000000 0.000000 0.000000 0.000000 -161.256950 9.757731 131.513812 8.984935 -55.622522 -49.738823 -4.041078 25.640925 -20.974785 -1.358275 -11.849940 0.143471 0.000000 0.000000 0.000000 0.000000 0.000000 0.000000 177.949765 17.297461 95.747347 121.771715 -20.388601 43.316528 65.383906 9.444107 -17.818475 0.000000 0.000000 0.000000 -168.198094 1.381930 118.383261 167.614194 -20.051544 69.379747 -3.098500 0.642085 -17.966774 0.000000 0.000000 0.000000
48.840575 52.850628 340.351930 26.243831 -15.737766 47.819837 -0.329301 -0.124936 -43.566878 -1.104621 0.538747 1.050478 -11.656311 37.593723 -1.048793 0.000000 0.000000 0.000000 -24.343849 18.257033 1.881127 28.631616 5.220744 3.525397 -45.064738 -17.527627 -5.451930 19.656042 -23.607960 -17.843482 0.000000 0.000000 0.000000 0.000000 0.000000 0.000000 -162.298537 8.226059 129.705238 12.785279 -56.349218 -47.466390 -3.910520 25.589362 -21.523879 -0.160758 -12.190308 1.214395 0.000000 0.000000 0.000000 0.000000 0.000000 0.000000 179.766998 18.557823 70.392893 118.104072 2.145049 31.355084 83.133063 9.234973 -27.846339 0.000000 0.000000 0.000000 -169.807181 -0.255243 96.239357 163.444828 -11.663011 48.982361 -3.519486 0.526812 -20.458051 0.000000 0.000000 0.000000
50.467217 53.319357 342.047515 25.970697 -18.289553 46.534069 0.625464 -0.173335 -41.992239 -0.998561 1.512710 0.865026 -4.816968 42.851364 -5.118411 0.000000 0.000000 0.000000 -24.789803 19.192578 2.144727 29.537190 5.416296 3.578993 -44.535289 -18.255578 -5.650363 16.996277 -23.025003 -16.583727 0.000000 0.000000 0.000000 0.000000 0.000000 0.000000 -163.195476 4.461574 129.156182 16.707873 -56.857899 -45.077347 -3.751230 25.525720 -22.182863 1.248159 -12.543115 2.494784 0.000000 0.000000 0.000000 0.000000 0.000000 0.000000 -175.551260 19.777760 66.483233 114.356096 6.486109 31.165064 94.600892 -0.018954 -19.862239 0.000000 0.000000 0.000000 -165.097631 5.605014 110.155025 160.867278 -19.722559 62.562991 -0.348629 -4.986661 -20.810442 0.000000 0.000000 0.000000
50.777706 53.308478 343.169407 24.790444 -19.937862 45.967638 1.066375 0.282796 -41.444694 -0.172512 1.487967 0.738644 1.190930 47.459677 -8.743554 0.000000 0.000000 0.000000 -24.447125 20.146119 2.346126 27.410110 4.974987 3.446032 -37.628593 -16.791135 -4.913367 14.370983 -24.721213 -15.667623 0.000000 0.000000 0.000000 0.000000 0.000000 0.000000 -163.289060 1.006797 128.779889 20.180642 -57.059286 -42.955837 -3.576079 25.454650 -22.895662 2.739747 -12.862497 3.871439 0.000000 0.000000 0.000000 0.000000 0.000000 0.000000 -167.824930 23.841656 52.618279 108.918804 21.635507 27.210659 103.652126 0.600474 -25.796063 0.000000 0.000000 0.000000 -163.462248 3.639197 111.133022 162.911081 -19.779980 63.854804 0.292558 -4.171431 -23.032675 0.000000 0.000000 0.000000
